<svg width="5" height="5" viewBox="0 0 20 20" fill="white" xmlns="http://www.w3.org/2000/svg">
<g clip-path="url(#clip0_245_174)">
<path fill-rule="evenodd" clip-rule="evenodd" d="M6.19568 5.77575C6.19568 3.69608 7.89331 2 10 2C12.1067 2 13.8044 3.69608 13.8044 5.77575C13.8044 7.83467 12.1404 9.51762 10.0629 9.55099C10.042 9.55085 10.021 9.55078 10 9.55078C9.97903 9.55078 9.95806 9.55085 9.93709 9.55099C7.8596 9.51761 6.19568 7.83466 6.19568 5.77575ZM6.35769 10.2729C5.03993 9.21507 4.19568 7.59512 4.19568 5.77575C4.19568 2.58027 6.80001 0 10 0C13.2 0 15.8044 2.58027 15.8044 5.77575C15.8044 7.59513 14.9601 9.21508 13.6423 10.2729C14.791 10.7472 15.8352 11.4414 16.7154 12.3163C17.5978 13.1935 18.2981 14.2352 18.776 15.3821C19.2539 16.529 19.5 17.7584 19.5 19.0002C19.5 19.5525 19.0523 20.0002 18.5 20.0002C17.9477 20.0002 17.5 19.5525 17.5 19.0002C17.5 18.0227 17.3063 17.0547 16.9299 16.1514C16.5535 15.248 16.0016 14.4268 15.3054 13.7348C14.6092 13.0427 13.7824 12.4935 12.8721 12.1186C11.9829 11.7525 11.0312 11.5599 10.0689 11.5511C10.046 11.5514 10.023 11.5515 10 11.5515C9.97704 11.5515 9.95409 11.5514 9.93116 11.5511C8.96885 11.5599 8.01711 11.7525 7.12793 12.1186C6.21755 12.4935 5.39076 13.0427 4.69458 13.7348C3.99843 14.4268 3.44652 15.248 3.07009 16.1514C2.69367 17.0547 2.5 18.0227 2.5 19.0002C2.5 19.5525 2.05228 20.0002 1.5 20.0002C0.947715 20.0002 0.5 19.5525 0.5 19.0002C0.5 17.7584 0.746052 16.529 1.22396 15.3821C1.70185 14.2352 2.40216 13.1935 3.2846 12.3163C4.16478 11.4414 5.20898 10.7472 6.35769 10.2729Z" fill="url(#paint0_linear_245_174)"/>
</g>
<defs>
<linearGradient id="paint0_linear_245_174" x1="0.5" y1="7.77784" x2="19.8851" y2="7.77784" gradientUnits="userSpaceOnUse">
<stop stop-color="#EACA7E"/>
<stop offset="0.334385" stop-color="#EDE085"/>
<stop offset="1" stop-color="#BA9456"/>
</linearGradient>
<clipPath id="clip0_245_174">
<rect width="20" height="20" fill="white"/>
</clipPath>
</defs>
</svg>
